<?xml version="1.0" encoding="UTF-8" standalone="no"?>
<!DOCTYPE svg PUBLIC "-//W3C//DTD SVG 1.0//EN" "http://www.w3.org/TR/2001/PR-SVG-20010719/DTD/svg10.dtd">
<svg width="21cm" height="24cm" viewBox="376 47 406 470" xmlns="http://www.w3.org/2000/svg" xmlns:xlink="http://www.w3.org/1999/xlink">
  <ellipse style="fill: #000000" cx="433" cy="80" rx="10" ry="10"/>
  <g>
    <rect style="fill: #ffffff" x="393" y="137" width="80" height="36" rx="10" ry="10"/>
    <rect style="fill: none; fill-opacity:0; stroke-width: 2; stroke: #000000" x="393" y="137" width="80" height="36" rx="10" ry="10"/>
    <text font-size="12.7998" style="fill: #000000;text-anchor:middle;font-family:sans-serif;font-style:normal;font-weight:normal" x="433" y="158.9">
      <tspan x="433" y="158.9">setup()</tspan>
    </text>
  </g>
  <g>
    <rect style="fill: #ffffff" x="393" y="232" width="80" height="36" rx="10" ry="10"/>
    <rect style="fill: none; fill-opacity:0; stroke-width: 2; stroke: #000000" x="393" y="232" width="80" height="36" rx="10" ry="10"/>
    <text font-size="12.7998" style="fill: #000000;text-anchor:middle;font-family:sans-serif;font-style:normal;font-weight:normal" x="433" y="253.9">
      <tspan x="433" y="253.9">loop()</tspan>
    </text>
  </g>
  <g>
    <polygon style="fill: #ffffff" points="413,336 433,316 453,336 433,356 "/>
    <polygon style="fill: none; fill-opacity:0; stroke-width: 2; stroke: #000000" points="413,336 433,316 453,336 433,356 "/>
  </g>
  <g>
    <polyline style="fill: none; fill-opacity:0; stroke-width: 2; stroke: #000000" points="433,173 433,183 433,222 433,227.528 "/>
    <polyline style="fill: none; fill-opacity:0; stroke-width: 2; stroke: #000000" points="428,219.764 433,229.764 438,219.764 "/>
  </g>
  <g>
    <polyline style="fill: none; fill-opacity:0; stroke-width: 2; stroke: #000000" points="433,268 433,278 433,306 433,311.528 "/>
    <polyline style="fill: none; fill-opacity:0; stroke-width: 2; stroke: #000000" points="428,303.764 433,313.764 438,303.764 "/>
  </g>
  <g>
    <polyline style="fill: none; fill-opacity:0; stroke-width: 2; stroke: #000000" points="453,336 522,336 522,202 433,202 433,227.528 "/>
    <polyline style="fill: none; fill-opacity:0; stroke-width: 2; stroke: #000000" points="428,219.764 433,229.764 438,219.764 "/>
    <text font-size="12.7998" style="fill: #000000;text-anchor:middle;font-family:sans-serif;font-style:normal;font-weight:normal" x="659" y="268">evaluateConditions() not in transitions</text>
  </g>
  <g>
    <rect style="fill: #ffffff" x="393" y="406" width="80.7" height="36" rx="10" ry="10"/>
    <rect style="fill: none; fill-opacity:0; stroke-width: 2; stroke: #000000" x="393" y="406" width="80.7" height="36" rx="10" ry="10"/>
    <text font-size="12.7998" style="fill: #000000;text-anchor:middle;font-family:sans-serif;font-style:normal;font-weight:normal" x="433.35" y="427.9">
      <tspan x="433.35" y="427.9">cleanup()</tspan>
    </text>
  </g>
  <g>
    <ellipse style="fill: #ffffff" cx="433" cy="501" rx="15" ry="15"/>
    <ellipse style="fill: none; fill-opacity:0; stroke-width: 2; stroke: #000000" cx="433" cy="501" rx="15" ry="15"/>
    <ellipse style="fill: #000000" cx="433" cy="501" rx="10" ry="10"/>
  </g>
  <g>
    <polyline style="fill: none; fill-opacity:0; stroke-width: 2; stroke: #000000" points="433,356 433,381 433.35,381 433.35,401.528 "/>
    <polyline style="fill: none; fill-opacity:0; stroke-width: 2; stroke: #000000" points="428.35,393.764 433.35,403.764 438.35,393.764 "/>
    <text font-size="12.7998" style="fill: #000000;text-anchor:middle;font-family:sans-serif;font-style:normal;font-weight:normal" x="560" y="379">evaluateConditions() in transitions</text>
  </g>
  <g>
    <polyline style="fill: none; fill-opacity:0; stroke-width: 2; stroke: #000000" points="433.35,442 433.35,463.496 433,463.496 433,480.52 "/>
    <polyline style="fill: none; fill-opacity:0; stroke-width: 2; stroke: #000000" points="428,472.756 433,482.756 438,472.756 "/>
  </g>
  <g>
    <polyline style="fill: none; fill-opacity:0; stroke-width: 2; stroke: #000000" points="433,91.0054 433,101.005 433,127 433,132.528 "/>
    <polyline style="fill: none; fill-opacity:0; stroke-width: 2; stroke: #000000" points="428,124.764 433,134.764 438,124.764 "/>
  </g>
  <text font-size="12.7998" style="fill: #000000;text-anchor:start;font-family:sans-serif;font-style:normal;font-weight:normal" x="376" y="59">
    <tspan x="376" y="59">From previous state</tspan>
  </text>
  <text font-size="12.7998" style="fill: #000000;text-anchor:start;font-family:sans-serif;font-style:normal;font-weight:normal" x="464" y="506">
    <tspan x="464" y="506">To next state / end</tspan>
  </text>
</svg>
